<?xml version="1.0" encoding="UTF-8"?>
<svg id="Layer_1" data-name="Layer 1" xmlns="http://www.w3.org/2000/svg" viewBox="0 0 514 129">
  <defs>
    <style>
      .cls-1 {
        fill: #e6e6e6;
      }

      .cls-1, .cls-2 {
        stroke-width: 0px;
      }

      .cls-2 {
        fill: #231f20;
      }
    </style>
  </defs>
  <rect class="cls-1" width="514" height="129"/>
  <g>
    <g>
      <path class="cls-2" d="m123.36,87.68c-1.9,0-3.74-.29-5.51-.86-1.77-.57-3.4-1.51-4.87-2.82-1.47-1.31-2.71-3.09-3.71-5.35l4.46-2.53c1.25,2.26,2.63,3.89,4.14,4.89,1.51,1,3.39,1.5,5.65,1.5s3.84-.48,4.97-1.45,1.69-2.29,1.69-3.98c0-1-.24-1.88-.73-2.63-.48-.75-1.34-1.45-2.55-2.1-1.22-.65-2.94-1.24-5.16-1.77-2.8-.72-4.97-1.6-6.53-2.66-1.56-1.06-2.64-2.28-3.25-3.66-.61-1.38-.91-2.88-.91-4.49,0-2.01.47-3.75,1.4-5.24.93-1.49,2.28-2.65,4.03-3.49,1.76-.84,3.83-1.26,6.24-1.26,2.87,0,5.23.55,7.1,1.64,1.86,1.09,3.44,2.59,4.73,4.49l-4.52,2.9c-1.11-1.36-2.27-2.34-3.47-2.93-1.2-.59-2.48-.89-3.84-.89-2.08,0-3.66.41-4.76,1.24-1.09.82-1.64,2.01-1.64,3.55,0,1.33.51,2.47,1.53,3.44s3.02,1.81,5.99,2.53c3.01.75,5.37,1.64,7.07,2.66,1.7,1.02,2.9,2.24,3.6,3.66.7,1.42,1.05,3.11,1.05,5.08s-.5,3.75-1.51,5.32c-1,1.58-2.42,2.84-4.25,3.79-1.83.95-3.98,1.42-6.45,1.42Z"/>
      <path class="cls-2" d="m140.08,52.57c0-1.04.31-1.89.94-2.55.63-.66,1.48-.99,2.55-.99s1.88.33,2.53.99c.65.66.97,1.51.97,2.55s-.32,1.84-.97,2.5c-.65.66-1.49.99-2.53.99s-1.93-.33-2.55-.99c-.63-.66-.94-1.5-.94-2.5Zm6.18,34.3h-5.38v-26.23h5.38v26.23Z"/>
      <path class="cls-2" d="m163.74,87.41c-2.4,0-4.52-.57-6.34-1.72-1.83-1.15-3.24-2.75-4.25-4.81-1-2.06-1.51-4.45-1.51-7.18s.5-5.11,1.51-7.15c1-2.04,2.42-3.63,4.25-4.76,1.83-1.13,3.94-1.69,6.34-1.69s4.43.56,6.18,1.69c1.76,1.13,3.13,2.71,4.11,4.76.99,2.04,1.48,4.43,1.48,7.15s-.49,5.12-1.48,7.18c-.99,2.06-2.36,3.67-4.11,4.81-1.76,1.15-3.82,1.72-6.18,1.72Zm.81-4.62c2.22,0,4-.82,5.35-2.47,1.34-1.65,2.02-3.83,2.02-6.56s-.67-4.91-2.02-6.56c-1.34-1.65-3.13-2.47-5.35-2.47s-4.01.82-5.38,2.47c-1.36,1.65-2.04,3.82-2.04,6.51s.68,4.92,2.04,6.59c1.36,1.67,3.15,2.5,5.38,2.5Zm8.39,4.09l-1.29-5.27h.54v-14.95h-.54v-16.4h5.38v36.61h-4.09Z"/>
      <path class="cls-2" d="m194.86,87.41c-2.54,0-4.78-.56-6.72-1.69s-3.44-2.71-4.52-4.76-1.61-4.43-1.61-7.15.54-5.16,1.61-7.2,2.58-3.64,4.52-4.78c1.94-1.15,4.17-1.72,6.72-1.72s4.84.57,6.77,1.72c1.94,1.15,3.44,2.74,4.52,4.78s1.61,4.44,1.61,7.2c0,.25,0,.51-.03.78-.02.27-.05.51-.08.73h-20.54v-4.62h16.67l-1.51,3.12c0-2.72-.61-4.96-1.83-6.72-1.22-1.76-3.08-2.63-5.59-2.63-2.22,0-4,.71-5.32,2.12-1.33,1.42-1.99,3.27-1.99,5.56v2.8c0,2.4.65,4.31,1.94,5.73,1.29,1.42,3.08,2.12,5.38,2.12,2.11,0,3.75-.45,4.89-1.34,1.15-.9,2.15-2.01,3.01-3.33l4.03,2.53c-1.22,2.26-2.79,3.95-4.7,5.08-1.92,1.13-4.33,1.69-7.23,1.69Z"/>
      <path class="cls-2" d="m216.9,60.64l1.29,7.1v19.14h-5.38v-26.23h4.09Zm.48,9.3l-1.29-.59v-3.92l.48-.59c.36-.65.92-1.33,1.69-2.07.77-.73,1.67-1.36,2.71-1.88,1.04-.52,2.1-.78,3.17-.78.54,0,1.05.04,1.53.11.48.07.85.2,1.1.38v4.84h-1.67c-2.44,0-4.21.37-5.32,1.1-1.11.73-1.92,1.87-2.42,3.41Z"/>
      <path class="cls-2" d="m240.72,87.41c-2.54,0-4.78-.56-6.72-1.69s-3.44-2.71-4.52-4.76-1.61-4.43-1.61-7.15.54-5.16,1.61-7.2,2.58-3.64,4.52-4.78c1.94-1.15,4.17-1.72,6.72-1.72s4.84.57,6.77,1.72c1.94,1.15,3.44,2.74,4.52,4.78s1.61,4.44,1.61,7.2c0,.25,0,.51-.03.78-.02.27-.05.51-.08.73h-20.54v-4.62h16.67l-1.51,3.12c0-2.72-.61-4.96-1.83-6.72-1.22-1.76-3.08-2.63-5.59-2.63-2.22,0-4,.71-5.32,2.12-1.33,1.42-1.99,3.27-1.99,5.56v2.8c0,2.4.65,4.31,1.94,5.73,1.29,1.42,3.08,2.12,5.38,2.12,2.11,0,3.75-.45,4.89-1.34,1.15-.9,2.15-2.01,3.01-3.33l4.03,2.53c-1.22,2.26-2.79,3.95-4.7,5.08-1.92,1.13-4.33,1.69-7.23,1.69Z"/>
      <path class="cls-2" d="m266.85,87.63c-2.04,0-3.8-.36-5.27-1.08-1.47-.72-2.59-1.75-3.36-3.09-.77-1.34-1.16-2.95-1.16-4.81,0-1.72.39-3.25,1.18-4.6.79-1.34,1.92-2.41,3.39-3.2,1.47-.79,3.21-1.18,5.21-1.18,2.51,0,4.52.56,6.05,1.69s2.59,2.68,3.2,4.65h-3.01v-6.72c0-1.11-.38-2.13-1.13-3.06-.75-.93-2.08-1.4-3.98-1.4-1,0-2.11.12-3.31.35-1.2.23-2.45.64-3.74,1.21l-1.61-4.14c1.47-.72,2.99-1.25,4.57-1.61,1.58-.36,3.12-.54,4.62-.54,2.26,0,4.12.41,5.59,1.24,1.47.83,2.56,1.93,3.28,3.31.72,1.38,1.08,2.93,1.08,4.65v17.58h-3.87l-1.34-4.78,2.85-.81c-.65,2.12-1.79,3.7-3.44,4.76-1.65,1.06-3.58,1.59-5.81,1.59Zm.97-4.79c1.58,0,2.85-.37,3.82-1.1.97-.73,1.45-1.76,1.45-3.09s-.48-2.4-1.45-3.12c-.97-.72-2.24-1.08-3.82-1.08s-2.85.36-3.82,1.08c-.97.72-1.45,1.76-1.45,3.12s.48,2.36,1.45,3.09c.97.74,2.24,1.1,3.82,1.1Z"/>
      <path class="cls-2" d="m289.1,87.14c-.93,0-1.76-.22-2.47-.67-.72-.45-1.28-1.1-1.69-1.96s-.62-1.92-.62-3.17v-31.07h5.27v29.19c0,1.11.28,1.86.83,2.26.56.4,1.19.59,1.91.59v4.3c-.47.18-.97.31-1.5.4-.54.09-1.11.13-1.72.13Z"/>
      <path class="cls-2" d="m316.84,55.32l1.24-1.72v29.03l-1.51-.86h18.39v5.11h-22.26v-36.61h22.26v5.05h-18.12Zm.16,15.7v-5.05h14.78v5.05h-14.78Z"/>
      <path class="cls-2" d="m356.36,60.1c1.86,0,3.33.31,4.41.94,1.08.63,1.86,1.47,2.37,2.53.5,1.06.82,2.25.97,3.58.14,1.33.21,2.69.21,4.09v15.64h-5.38v-16.77c0-1.86-.42-3.12-1.26-3.76-.84-.65-1.84-.97-2.98-.97s-2.31.23-3.49.7c-1.18.47-2.24,1.09-3.17,1.88-.93.79-1.65,1.67-2.15,2.63v-3.01h.86v19.3h-5.38v-26.23h4.09l1.13,4.62-1.34.16c1-1.15,2.1-2.11,3.28-2.9,1.18-.79,2.44-1.39,3.76-1.8,1.33-.41,2.69-.62,4.09-.62Z"/>
      <path class="cls-2" d="m381.62,85.26c-2.44,0-4.58-.52-6.42-1.56-1.85-1.04-3.28-2.5-4.3-4.38-1.02-1.88-1.53-4.08-1.53-6.59s.51-4.76,1.53-6.64c1.02-1.88,2.46-3.35,4.3-4.41,1.85-1.06,3.99-1.59,6.42-1.59s4.36.53,6.1,1.59c1.74,1.06,3.09,2.53,4.06,4.41.97,1.88,1.45,4.1,1.45,6.64s-.48,4.7-1.45,6.59c-.97,1.88-2.32,3.34-4.06,4.38-1.74,1.04-3.77,1.56-6.1,1.56Zm.64,12.26c-1.5,0-2.93-.21-4.27-.62s-2.56-1.08-3.66-2.02c-1.09-.93-2.07-2.17-2.93-3.71l-.38-.7,4.25-2.31c.93,1.54,1.93,2.7,2.98,3.47,1.06.77,2.39,1.16,4,1.16,2.19,0,3.92-.68,5.19-2.04,1.27-1.36,1.91-3.46,1.91-6.29v-5.59h.54v-12.96h-.54l1.29-5.27h4.09v22.96c0,3.08-.55,5.66-1.64,7.74-1.09,2.08-2.57,3.63-4.44,4.65s-4,1.53-6.4,1.53Zm0-16.88c2.22,0,4.01-.73,5.35-2.18s2.02-3.38,2.02-5.78-.67-4.33-2.02-5.78c-1.34-1.45-3.13-2.18-5.35-2.18s-4.01.73-5.38,2.2c-1.36,1.47-2.04,3.41-2.04,5.81s.68,4.27,2.04,5.73,3.15,2.18,5.38,2.18Z"/>
      <path class="cls-2" d="m400.92,52.57c0-1.04.31-1.89.94-2.55.63-.66,1.48-.99,2.55-.99s1.88.33,2.53.99c.65.66.97,1.51.97,2.55s-.32,1.84-.97,2.5c-.65.66-1.49.99-2.53.99s-1.93-.33-2.55-.99c-.63-.66-.94-1.5-.94-2.5Zm6.18,34.3h-5.38v-26.23h5.38v26.23Z"/>
      <path class="cls-2" d="m429.09,60.1c1.86,0,3.33.31,4.41.94,1.07.63,1.86,1.47,2.37,2.53.5,1.06.82,2.25.97,3.58.14,1.33.22,2.69.22,4.09v15.64h-5.38v-16.77c0-1.86-.42-3.12-1.26-3.76-.84-.65-1.84-.97-2.98-.97s-2.31.23-3.5.7c-1.18.47-2.24,1.09-3.17,1.88-.93.79-1.65,1.67-2.15,2.63v-3.01h.86v19.3h-5.38v-26.23h4.09l1.13,4.62-1.34.16c1-1.15,2.1-2.11,3.28-2.9,1.18-.79,2.44-1.39,3.76-1.8,1.33-.41,2.69-.62,4.09-.62Z"/>
      <path class="cls-2" d="m454.68,87.41c-2.55,0-4.79-.56-6.72-1.69-1.93-1.13-3.44-2.71-4.52-4.76s-1.61-4.43-1.61-7.15.54-5.16,1.61-7.2,2.58-3.64,4.52-4.78c1.94-1.15,4.17-1.72,6.72-1.72s4.84.57,6.77,1.72c1.94,1.15,3.44,2.74,4.52,4.78s1.61,4.44,1.61,7.2c0,.25,0,.51-.03.78-.02.27-.04.51-.08.73h-20.54v-4.62h16.67l-1.5,3.12c0-2.72-.61-4.96-1.83-6.72-1.22-1.76-3.08-2.63-5.59-2.63-2.22,0-4,.71-5.32,2.12-1.33,1.42-1.99,3.27-1.99,5.56v2.8c0,2.4.64,4.31,1.94,5.73,1.29,1.42,3.08,2.12,5.38,2.12,2.11,0,3.74-.45,4.89-1.34,1.15-.9,2.15-2.01,3.01-3.33l4.03,2.53c-1.22,2.26-2.79,3.95-4.7,5.08-1.92,1.13-4.33,1.69-7.23,1.69Z"/>
    </g>
    <polygon class="cls-2" points="46.41 57.3 46.41 80.95 66.89 92.77 87.37 80.95 87.37 57.3 66.89 45.48 46.41 57.3"/>
  </g>
</svg>