<?xml version="1.0" encoding="utf-8"?>
<!-- Generator: Adobe Illustrator 27.9.0, SVG Export Plug-In . SVG Version: 6.00 Build 0)  -->
<svg version="1.1" id="Layer_1" xmlns="http://www.w3.org/2000/svg" xmlns:xlink="http://www.w3.org/1999/xlink" x="0px" y="0px"
	 viewBox="0 0 514 129" style="enable-background:new 0 0 514 129;" xml:space="preserve">
<style type="text/css">
	.st0{fill:#E6E6E6;}
	.st1{fill:#231F20;}
</style>
<rect class="st0" width="514" height="129"/>
<polygon class="st1" points="455.9,80.8 455.9,104.5 476.5,116.3 496.9,104.5 496.9,80.8 476.5,69 "/>
<g>
	<g>
		<path class="st1" d="M44.2,61.9c-1.3,0-2.5-0.2-3.7-0.6s-2.3-1-3.3-1.9s-1.8-2.1-2.5-3.6l3-1.7c0.8,1.5,1.8,2.6,2.8,3.3
			s2.3,1,3.8,1s2.6-0.3,3.4-1s1.1-1.5,1.1-2.7c0-0.7-0.2-1.3-0.5-1.8s-0.9-1-1.7-1.4c-0.8-0.4-2-0.8-3.5-1.2
			c-1.9-0.5-3.4-1.1-4.4-1.8c-1.1-0.7-1.8-1.5-2.2-2.5c-0.4-0.9-0.6-1.9-0.6-3c0-1.4,0.3-2.5,0.9-3.5s1.5-1.8,2.7-2.4
			c1.2-0.6,2.6-0.9,4.2-0.9c1.9,0,3.5,0.4,4.8,1.1c1.3,0.7,2.3,1.7,3.2,3l-3.1,2c-0.7-0.9-1.5-1.6-2.3-2s-1.7-0.6-2.6-0.6
			c-1.4,0-2.5,0.3-3.2,0.8c-0.7,0.6-1.1,1.4-1.1,2.4c0,0.9,0.3,1.7,1,2.3c0.7,0.7,2,1.2,4,1.7s3.6,1.1,4.8,1.8
			c1.1,0.7,2,1.5,2.4,2.5c0.5,1,0.7,2.1,0.7,3.4c0,1.3-0.3,2.5-1,3.6s-1.6,1.9-2.9,2.6S45.9,61.9,44.2,61.9L44.2,61.9z"/>
		<path class="st1" d="M55.5,38.2c0-0.7,0.2-1.3,0.6-1.7s1-0.7,1.7-0.7s1.3,0.2,1.7,0.7c0.4,0.4,0.7,1,0.7,1.7s-0.2,1.2-0.7,1.7
			c-0.4,0.4-1,0.7-1.7,0.7s-1.3-0.2-1.7-0.7S55.5,38.9,55.5,38.2z M59.7,61.4h-3.6V43.6h3.6V61.4z"/>
		<path class="st1" d="M71.5,61.7c-1.6,0-3.1-0.4-4.3-1.2c-1.2-0.8-2.2-1.9-2.9-3.2c-0.7-1.4-1-3-1-4.9c0-1.8,0.3-3.5,1-4.8
			c0.7-1.4,1.6-2.5,2.9-3.2c1.2-0.8,2.7-1.1,4.3-1.1s3,0.4,4.2,1.1c1.2,0.8,2.1,1.8,2.8,3.2s1,3,1,4.8s-0.3,3.5-1,4.9
			c-0.7,1.4-1.6,2.5-2.8,3.2C74.5,61.3,73.1,61.7,71.5,61.7z M72,58.6c1.5,0,2.7-0.6,3.6-1.7c0.9-1.1,1.4-2.6,1.4-4.4
			s-0.5-3.3-1.4-4.4c-0.9-1.1-2.1-1.7-3.6-1.7s-2.7,0.6-3.6,1.7c-0.9,1.1-1.4,2.6-1.4,4.4c0,1.8,0.5,3.3,1.4,4.5S70.5,58.6,72,58.6
			L72,58.6z M77.7,61.4l-0.9-3.6h0.4V47.7h-0.4V36.6h3.6v24.7L77.7,61.4L77.7,61.4z"/>
		<path class="st1" d="M92.5,61.7c-1.7,0-3.2-0.4-4.5-1.1c-1.3-0.8-2.3-1.8-3.1-3.2c-0.7-1.4-1.1-3-1.1-4.8s0.4-3.5,1.1-4.9
			c0.7-1.4,1.7-2.5,3.1-3.2c1.3-0.8,2.8-1.2,4.5-1.2s3.3,0.4,4.6,1.2s2.3,1.9,3.1,3.2c0.7,1.4,1.1,3,1.1,4.9c0,0.2,0,0.3,0,0.5
			s0,0.3-0.1,0.5H87.3v-3.1h11.3l-1,2.1c0-1.8-0.4-3.4-1.2-4.5c-0.8-1.2-2.1-1.8-3.8-1.8c-1.5,0-2.7,0.5-3.6,1.4
			c-0.9,1-1.3,2.2-1.3,3.8v1.9c0,1.6,0.4,2.9,1.3,3.9c0.9,1,2.1,1.4,3.6,1.4c1.4,0,2.5-0.3,3.3-0.9s1.5-1.4,2-2.2l2.7,1.7
			c-0.8,1.5-1.9,2.7-3.2,3.4C96.1,61.4,94.5,61.7,92.5,61.7L92.5,61.7z"/>
		<path class="st1" d="M107.4,43.6l0.9,4.8v12.9h-3.6V43.7L107.4,43.6L107.4,43.6z M107.7,49.9l-0.9-0.4v-2.6l0.3-0.4
			c0.2-0.4,0.6-0.9,1.1-1.4s1.1-0.9,1.8-1.3c0.7-0.4,1.4-0.5,2.1-0.5c0.4,0,0.7,0,1,0.1c0.3,0,0.6,0.1,0.7,0.3V47h-1.1
			c-1.6,0-2.8,0.2-3.6,0.7C108.6,48.1,108.1,48.9,107.7,49.9L107.7,49.9z"/>
		<path class="st1" d="M123.5,61.7c-1.7,0-3.2-0.4-4.5-1.1c-1.3-0.8-2.3-1.8-3.1-3.2s-1.1-3-1.1-4.8s0.4-3.5,1.1-4.9
			c0.7-1.4,1.7-2.5,3.1-3.2c1.3-0.8,2.8-1.2,4.5-1.2s3.3,0.4,4.6,1.2s2.3,1.9,3.1,3.2c0.7,1.4,1.1,3,1.1,4.9c0,0.2,0,0.3,0,0.5
			s0,0.3-0.1,0.5h-13.9v-3.1h11.3l-1,2.1c0-1.8-0.4-3.4-1.2-4.5c-0.8-1.2-2.1-1.8-3.8-1.8c-1.5,0-2.7,0.5-3.6,1.4
			c-0.9,1-1.3,2.2-1.3,3.8v1.9c0,1.6,0.4,2.9,1.3,3.9c0.9,1,2.1,1.4,3.6,1.4c1.4,0,2.5-0.3,3.3-0.9s1.5-1.4,2-2.2l2.7,1.7
			c-0.8,1.5-1.9,2.7-3.2,3.4C127.1,61.4,125.5,61.7,123.5,61.7L123.5,61.7z"/>
		<path class="st1" d="M141.2,61.9c-1.4,0-2.6-0.2-3.6-0.7s-1.7-1.2-2.3-2.1c-0.5-0.9-0.8-2-0.8-3.2s0.3-2.2,0.8-3.1
			c0.5-0.9,1.3-1.6,2.3-2.2c1-0.5,2.2-0.8,3.5-0.8c1.7,0,3.1,0.4,4.1,1.1s1.7,1.8,2.2,3.1h-2v-4.5c0-0.7-0.3-1.4-0.8-2.1
			c-0.5-0.6-1.4-0.9-2.7-0.9c-0.7,0-1.4,0.1-2.2,0.2c-0.8,0.2-1.7,0.4-2.5,0.8l-1.1-2.8c1-0.5,2-0.8,3.1-1.1
			c1.1-0.2,2.1-0.4,3.1-0.4c1.5,0,2.8,0.3,3.8,0.8c1,0.6,1.7,1.3,2.2,2.2s0.7,2,0.7,3.1v11.9h-2.6l-0.9-3.2l1.9-0.5
			c-0.4,1.4-1.2,2.5-2.3,3.2S142.7,61.9,141.2,61.9L141.2,61.9z M141.8,58.6c1.1,0,1.9-0.2,2.6-0.7c0.7-0.5,1-1.2,1-2.1
			s-0.3-1.6-1-2.1s-1.5-0.7-2.6-0.7s-1.9,0.2-2.6,0.7c-0.7,0.5-1,1.2-1,2.1c0,0.9,0.3,1.6,1,2.1C139.9,58.4,140.7,58.6,141.8,58.6z"
			/>
		<path class="st1" d="M156.2,61.6c-0.6,0-1.2-0.1-1.7-0.5c-0.5-0.3-0.9-0.7-1.1-1.3c-0.3-0.6-0.4-1.3-0.4-2.1v-21h3.6v19.7
			c0,0.7,0.2,1.3,0.6,1.5c0.4,0.3,0.8,0.4,1.3,0.4v2.9c-0.3,0.1-0.7,0.2-1,0.3C157,61.5,156.6,61.6,156.2,61.6L156.2,61.6z"/>
		<path class="st1" d="M174.9,40.1l0.8-1.2v19.6l-1-0.6h12.4v3.5h-15V36.6h15V40L174.9,40.1L174.9,40.1z M175,50.7v-3.5h10v3.4
			L175,50.7L175,50.7z"/>
		<path class="st1" d="M201.6,43.3c1.3,0,2.2,0.2,3,0.6c0.7,0.4,1.3,1,1.6,1.7s0.6,1.5,0.7,2.4s0.1,1.8,0.1,2.8v10.6h-3.6V50
			c0-1.3-0.3-2.1-0.9-2.5c-0.6-0.4-1.2-0.7-2-0.7s-1.6,0.2-2.4,0.5s-1.5,0.7-2.1,1.3c-0.6,0.5-1.1,1.1-1.5,1.8v-2h0.6v13h-3.6V43.7
			h2.8l0.8,3.1l-0.9,0.1c0.7-0.8,1.4-1.4,2.2-2c0.8-0.5,1.6-0.9,2.5-1.2C199.8,43.4,200.7,43.3,201.6,43.3L201.6,43.3z"/>
		<path class="st1" d="M218.7,60.3c-1.6,0-3.1-0.4-4.3-1.1c-1.2-0.7-2.2-1.7-2.9-3c-0.7-1.3-1-2.8-1-4.5s0.3-3.2,1-4.5
			s1.7-2.3,2.9-3c1.2-0.7,2.7-1.1,4.3-1.1c1.6,0,2.9,0.4,4.1,1.1c1.2,0.7,2.1,1.7,2.7,3c0.7,1.3,1,2.8,1,4.5s-0.3,3.2-1,4.5
			s-1.6,2.3-2.7,3S220.3,60.3,218.7,60.3z M219.1,68.6c-1,0-2-0.1-2.9-0.4s-1.7-0.7-2.5-1.4c-0.7-0.6-1.4-1.5-2-2.5l-0.3-0.5
			l2.9-1.6c0.6,1,1.3,1.8,2,2.3s1.6,0.8,2.7,0.8c1.5,0,2.6-0.5,3.5-1.4s1.3-2.3,1.3-4.2v-3.8h0.4v-8.7h-0.3l0.9-3.6h2.8v15.6
			c0,2.1-0.4,3.8-1.1,5.2c-0.7,1.4-1.7,2.5-3,3.1S220.7,68.6,219.1,68.6L219.1,68.6z M219.1,57.2c1.5,0,2.7-0.5,3.6-1.5
			s1.4-2.3,1.4-3.9c0-1.6-0.5-2.9-1.4-3.9s-2.1-1.5-3.6-1.5s-2.7,0.5-3.6,1.5s-1.4,2.3-1.4,3.9c0,1.6,0.5,2.9,1.4,3.9
			S217.6,57.2,219.1,57.2z"/>
		<path class="st1" d="M231.7,38.2c0-0.7,0.2-1.3,0.6-1.7s1-0.7,1.7-0.7s1.3,0.2,1.7,0.7c0.4,0.4,0.7,1,0.7,1.7s-0.2,1.2-0.7,1.7
			s-1,0.7-1.7,0.7s-1.3-0.2-1.7-0.7C232,39.4,231.7,38.9,231.7,38.2z M235.9,61.4h-3.6V43.6h3.6V61.4z"/>
		<path class="st1" d="M250.8,43.3c1.3,0,2.2,0.2,3,0.6c0.7,0.4,1.3,1,1.6,1.7c0.3,0.7,0.6,1.5,0.7,2.4c0.1,0.9,0.1,1.8,0.1,2.8
			v10.6h-3.6V50c0-1.3-0.3-2.1-0.9-2.5s-1.2-0.7-2-0.7s-1.6,0.2-2.4,0.5s-1.5,0.7-2.1,1.3c-0.6,0.5-1.1,1.1-1.5,1.8v-2h0.6v13h-3.6
			V43.7h2.8l0.8,3.1l-0.9,0.1c0.7-0.8,1.4-1.4,2.2-2c0.8-0.5,1.6-0.9,2.5-1.2C248.9,43.4,249.8,43.3,250.8,43.3L250.8,43.3z"/>
		<path class="st1" d="M268.1,61.7c-1.7,0-3.2-0.4-4.5-1.1c-1.3-0.8-2.3-1.8-3.1-3.2c-0.8-1.4-1.1-3-1.1-4.8s0.4-3.5,1.1-4.9
			s1.7-2.5,3.1-3.2c1.3-0.8,2.8-1.2,4.5-1.2s3.3,0.4,4.6,1.2s2.3,1.9,3.1,3.2c0.7,1.4,1.1,3,1.1,4.9c0,0.2,0,0.3,0,0.5
			s0,0.3-0.1,0.5h-13.9v-3.1h11.3l-1,2.1c0-1.8-0.4-3.4-1.2-4.5c-0.8-1.1-2.1-1.8-3.8-1.8c-1.5,0-2.7,0.5-3.6,1.4
			c-0.9,1-1.3,2.2-1.3,3.8v1.9c0,1.6,0.4,2.9,1.3,3.9c0.9,1,2.1,1.4,3.6,1.4c1.4,0,2.5-0.3,3.3-0.9s1.5-1.4,2-2.2l2.7,1.7
			c-0.8,1.5-1.9,2.7-3.2,3.4C271.7,61.4,270,61.7,268.1,61.7L268.1,61.7z"/>
	</g>
	<g>
		<path d="M36.1,76.6h6.5v1.3h-4.9v4h4.6v1.3h-4.6v5.5h-1.6V76.6z"/>
		<path d="M44.4,76H46v12.7h-1.6V76z"/>
		<path d="M49.5,84.6c0,2.1,1.4,3,3,3c1.1,0,1.8-0.2,2.4-0.4l0.3,1.1c-0.6,0.3-1.5,0.5-2.9,0.5c-2.7,0-4.3-1.8-4.3-4.4
			s1.5-4.7,4.1-4.7c2.8,0,3.6,2.5,3.6,4.1c0,0.3,0,0.6-0.1,0.7H49.5z M54.1,83.5c0-1-0.4-2.6-2.2-2.6c-1.6,0-2.3,1.5-2.4,2.6H54.1z"
			/>
		<path d="M58.3,80l1.2,1.9c0.3,0.5,0.6,0.9,0.9,1.4h0.1c0.3-0.5,0.6-1,0.9-1.4l1.2-1.8h1.7l-3,4.2l3,4.5h-1.8l-1.3-2
			c-0.3-0.5-0.6-1-0.9-1.5h0c-0.3,0.5-0.6,1-0.9,1.5l-1.3,2h-1.7l3.1-4.4L56.5,80H58.3z"/>
		<path d="M67.6,77.6c0,0.5-0.4,1-1,1c-0.6,0-0.9-0.4-0.9-1c0-0.6,0.4-1,1-1C67.2,76.6,67.6,77,67.6,77.6z M65.8,88.7V80h1.6v8.7
			H65.8z"/>
		<path d="M70,88.7c0-0.6,0.1-1.5,0.1-2.2V76h1.6v5.4h0c0.6-1,1.6-1.6,3-1.6c2.1,0,3.7,1.8,3.7,4.4c0,3.1-2,4.6-3.9,4.6
			c-1.3,0-2.3-0.5-2.9-1.6h-0.1l-0.1,1.4H70z M71.6,85.2c0,0.2,0,0.4,0.1,0.6c0.3,1.1,1.2,1.8,2.4,1.8c1.6,0,2.6-1.3,2.6-3.3
			c0-1.7-0.9-3.2-2.6-3.2c-1.1,0-2.1,0.7-2.4,1.9c0,0.2-0.1,0.4-0.1,0.6V85.2z"/>
		<path d="M80.2,76h1.6v12.7h-1.6V76z"/>
		<path d="M85.3,84.6c0,2.1,1.4,3,3,3c1.1,0,1.8-0.2,2.4-0.4l0.3,1.1c-0.6,0.3-1.5,0.5-2.9,0.5c-2.7,0-4.3-1.8-4.3-4.4
			s1.5-4.7,4.1-4.7c2.8,0,3.6,2.5,3.6,4.1c0,0.3,0,0.6-0.1,0.7H85.3z M89.9,83.5c0-1-0.4-2.6-2.2-2.6c-1.6,0-2.3,1.5-2.4,2.6H89.9z"
			/>
		<path d="M97.2,82.7c0-1,0-1.9-0.1-2.7h1.4l0.1,1.7h0.1c0.4-1.2,1.3-1.9,2.4-1.9c0.2,0,0.3,0,0.4,0.1v1.5c-0.2,0-0.3-0.1-0.5-0.1
			c-1.1,0-1.9,0.8-2.1,2c0,0.2-0.1,0.5-0.1,0.7v4.6h-1.6V82.7z"/>
		<path d="M103.8,84.6c0,2.1,1.4,3,3,3c1.1,0,1.8-0.2,2.4-0.4l0.3,1.1c-0.6,0.3-1.5,0.5-2.9,0.5c-2.7,0-4.3-1.8-4.3-4.4
			s1.5-4.7,4.1-4.7c2.8,0,3.6,2.5,3.6,4.1c0,0.3,0,0.6-0.1,0.7H103.8z M108.4,83.5c0-1-0.4-2.6-2.2-2.6c-1.6,0-2.3,1.5-2.4,2.6
			H108.4z"/>
		<path d="M111.8,82.4c0-0.9,0-1.6-0.1-2.3h1.4l0.1,1.4h0c0.4-0.8,1.4-1.6,2.9-1.6c1.2,0,3.1,0.7,3.1,3.7v5.2h-1.6v-5
			c0-1.4-0.5-2.6-2-2.6c-1,0-1.8,0.7-2.1,1.6c-0.1,0.2-0.1,0.5-0.1,0.7v5.2h-1.6V82.4z"/>
		<path d="M129.3,76v10.5c0,0.8,0,1.6,0.1,2.2h-1.4l-0.1-1.5h0c-0.5,1-1.5,1.7-3,1.7c-2.1,0-3.7-1.8-3.7-4.4c0-2.9,1.8-4.7,3.9-4.7
			c1.3,0,2.2,0.6,2.6,1.3h0V76H129.3z M127.7,83.6c0-0.2,0-0.5-0.1-0.7c-0.2-1-1.1-1.8-2.3-1.8c-1.6,0-2.6,1.4-2.6,3.3
			c0,1.8,0.9,3.2,2.6,3.2c1.1,0,2-0.7,2.3-1.9c0.1-0.2,0.1-0.4,0.1-0.7V83.6z"/>
		<path d="M132.7,84.6c0,2.1,1.4,3,3,3c1.1,0,1.8-0.2,2.4-0.4l0.3,1.1c-0.6,0.3-1.5,0.5-2.9,0.5c-2.7,0-4.3-1.8-4.3-4.4
			s1.5-4.7,4.1-4.7c2.8,0,3.6,2.5,3.6,4.1c0,0.3,0,0.6-0.1,0.7H132.7z M137.4,83.5c0-1-0.4-2.6-2.2-2.6c-1.6,0-2.3,1.5-2.4,2.6
			H137.4z"/>
		<path d="M140.8,82.7c0-1,0-1.9-0.1-2.7h1.4l0.1,1.7h0.1c0.4-1.2,1.3-1.9,2.4-1.9c0.2,0,0.3,0,0.4,0.1v1.5c-0.2,0-0.3-0.1-0.5-0.1
			c-1.1,0-1.9,0.8-2.1,2c0,0.2-0.1,0.5-0.1,0.7v4.6h-1.6V82.7z"/>
		<path d="M148.5,77.6c0,0.5-0.4,1-1,1c-0.6,0-0.9-0.4-0.9-1c0-0.6,0.4-1,1-1C148.1,76.6,148.5,77,148.5,77.6z M146.8,88.7V80h1.6
			v8.7H146.8z"/>
		<path d="M151,82.4c0-0.9,0-1.6-0.1-2.3h1.4l0.1,1.4h0c0.4-0.8,1.4-1.6,2.9-1.6c1.2,0,3.1,0.7,3.1,3.7v5.2h-1.6v-5
			c0-1.4-0.5-2.6-2-2.6c-1,0-1.8,0.7-2.1,1.6c-0.1,0.2-0.1,0.5-0.1,0.7v5.2H151V82.4z"/>
		<path d="M168.3,80c0,0.6-0.1,1.3-0.1,2.4v5c0,2-0.4,3.2-1.2,4c-0.8,0.8-2.1,1-3.2,1c-1,0-2.2-0.3-2.9-0.7l0.4-1.2
			c0.6,0.4,1.5,0.7,2.5,0.7c1.6,0,2.8-0.8,2.8-3v-1h0c-0.5,0.8-1.4,1.4-2.8,1.4c-2.1,0-3.7-1.8-3.7-4.2c0-2.9,1.9-4.6,3.9-4.6
			c1.5,0,2.3,0.8,2.7,1.5h0L167,80H168.3z M166.7,83.4c0-0.3,0-0.5-0.1-0.7c-0.3-0.9-1.1-1.7-2.2-1.7c-1.5,0-2.6,1.3-2.6,3.3
			c0,1.7,0.9,3.1,2.6,3.1c1,0,1.8-0.6,2.2-1.6c0.1-0.3,0.1-0.6,0.1-0.8V83.4z"/>
		<path d="M174.7,76h1.6v12.7h-1.6V76z"/>
		<path d="M180.7,77.6c0,0.5-0.4,1-1,1c-0.6,0-0.9-0.4-0.9-1c0-0.6,0.4-1,1-1C180.3,76.6,180.7,77,180.7,77.6z M178.9,88.7V80h1.6
			v8.7H178.9z"/>
		<path d="M183,88.7c0-0.6,0.1-1.5,0.1-2.2V76h1.6v5.4h0c0.6-1,1.6-1.6,3-1.6c2.1,0,3.7,1.8,3.7,4.4c0,3.1-2,4.6-3.9,4.6
			c-1.3,0-2.3-0.5-2.9-1.6h-0.1l-0.1,1.4H183z M184.7,85.2c0,0.2,0,0.4,0.1,0.6c0.3,1.1,1.2,1.8,2.4,1.8c1.6,0,2.6-1.3,2.6-3.3
			c0-1.7-0.9-3.2-2.6-3.2c-1.1,0-2.1,0.7-2.4,1.9c0,0.2-0.1,0.4-0.1,0.6V85.2z"/>
		<path d="M193.3,82.7c0-1,0-1.9-0.1-2.7h1.4l0.1,1.7h0.1c0.4-1.2,1.3-1.9,2.4-1.9c0.2,0,0.3,0,0.4,0.1v1.5c-0.2,0-0.3-0.1-0.5-0.1
			c-1.1,0-1.9,0.8-2.1,2c0,0.2-0.1,0.5-0.1,0.7v4.6h-1.6V82.7z"/>
		<path d="M203.8,88.7l-0.1-1.1h-0.1c-0.5,0.7-1.4,1.3-2.6,1.3c-1.8,0-2.6-1.2-2.6-2.5c0-2.1,1.9-3.2,5.2-3.2V83c0-0.7-0.2-2-2-2
			c-0.8,0-1.6,0.2-2.3,0.6l-0.4-1c0.7-0.5,1.8-0.8,2.8-0.8c2.6,0,3.3,1.8,3.3,3.5v3.2c0,0.8,0,1.5,0.1,2.1H203.8z M203.6,84.3
			c-1.7,0-3.7,0.3-3.7,2c0,1,0.7,1.5,1.5,1.5c1.1,0,1.8-0.7,2.1-1.4c0.1-0.2,0.1-0.3,0.1-0.5V84.3z"/>
		<path d="M207.7,82.7c0-1,0-1.9-0.1-2.7h1.4l0.1,1.7h0.1c0.4-1.2,1.3-1.9,2.4-1.9c0.2,0,0.3,0,0.4,0.1v1.5c-0.2,0-0.3-0.1-0.5-0.1
			c-1.1,0-1.9,0.8-2.1,2c0,0.2-0.1,0.5-0.1,0.7v4.6h-1.6V82.7z"/>
		<path d="M214.5,80l1.9,5.1c0.2,0.6,0.4,1.3,0.6,1.8h0c0.2-0.5,0.3-1.2,0.6-1.8l1.7-5.1h1.7l-2.4,6.2c-1.1,3-1.9,4.5-3,5.4
			c-0.8,0.7-1.5,0.9-1.9,1l-0.4-1.3c0.4-0.1,0.9-0.4,1.4-0.8c0.4-0.3,1-0.9,1.3-1.8c0.1-0.2,0.1-0.3,0.1-0.4s0-0.2-0.1-0.4l-3.2-8
			H214.5z"/>
		<path d="M221.3,87.8c0-0.7,0.4-1.1,1.1-1.1c0.6,0,1.1,0.5,1.1,1.1c0,0.6-0.4,1.1-1.1,1.1C221.8,88.9,221.3,88.4,221.3,87.8z"/>
	</g>
</g>
</svg>
